<svg width="47" height="46" viewBox="0 0 47 46" fill="none" xmlns="http://www.w3.org/2000/svg">
<g filter="url(#filter0_d_49_186)">
<rect x="4.5" width="38" height="38" rx="19" fill="white"/>
</g>
<path fill-rule="evenodd" clip-rule="evenodd" d="M20.6469 12.1582C20.6933 12.108 20.7485 12.0683 20.8092 12.0411C20.8699 12.014 20.935 12 21.0008 12C21.0665 12 21.1316 12.014 21.1924 12.0411C21.2531 12.0683 21.3082 12.108 21.3547 12.1582L27.3531 18.619C27.3997 18.669 27.4366 18.7284 27.4618 18.7938C27.487 18.8592 27.5 18.9293 27.5 19.0001C27.5 19.071 27.487 19.1411 27.4618 19.2065C27.4366 19.2719 27.3997 19.3313 27.3531 19.3813L21.3547 25.8421C21.2608 25.9432 21.1335 26 21.0008 26C20.868 26 20.7407 25.9432 20.6469 25.8421C20.553 25.741 20.5003 25.6039 20.5003 25.4609C20.5003 25.3179 20.553 25.1808 20.6469 25.0797L26.2924 19.0001L20.6469 12.9205C20.6003 12.8705 20.5634 12.8111 20.5382 12.7457C20.513 12.6803 20.5 12.6102 20.5 12.5394C20.5 12.4685 20.513 12.3984 20.5382 12.333C20.5634 12.2676 20.6003 12.2082 20.6469 12.1582Z" fill="#E30500"/>
<defs>
<filter id="filter0_d_49_186" x="0.5" y="0" width="46" height="46" filterUnits="userSpaceOnUse" color-interpolation-filters="sRGB">
<feFlood flood-opacity="0" result="BackgroundImageFix"/>
<feColorMatrix in="SourceAlpha" type="matrix" values="0 0 0 0 0 0 0 0 0 0 0 0 0 0 0 0 0 0 127 0" result="hardAlpha"/>
<feOffset dy="4"/>
<feGaussianBlur stdDeviation="2"/>
<feComposite in2="hardAlpha" operator="out"/>
<feColorMatrix type="matrix" values="0 0 0 0 0 0 0 0 0 0 0 0 0 0 0 0 0 0 0.1 0"/>
<feBlend mode="normal" in2="BackgroundImageFix" result="effect1_dropShadow_49_186"/>
<feBlend mode="normal" in="SourceGraphic" in2="effect1_dropShadow_49_186" result="shape"/>
</filter>
</defs>
</svg>
