<svg width="546" height="161" viewBox="0 0 546 161" fill="none" xmlns="http://www.w3.org/2000/svg">
<g clip-path="url(#clip0_3_10271)">
<path d="M546 131.445H0V160.445H546V131.445Z" fill="white"/>
<path d="M0.67871 39H53.4914L51.7428 54.8572H21.8883V70.1626H46.0567V86.1265H21.8883V120.025H0.67871V39Z" fill="white"/>
<path d="M63.8804 39H85.09V120.025H63.8804V39Z" fill="white"/>
<path d="M117.347 54.9639H94.8206V39H160.977V54.9639H138.561V120.025H117.347L117.347 54.9639Z" fill="white"/>
<path d="M158.463 80.7696H193.234V98.9226H158.463V80.7696Z" fill="white"/>
<path d="M252.169 68.5253L237.846 120.025H219.916C215.831 106.54 211.783 93.0362 207.778 79.515C203.765 65.9937 199.903 52.4857 196.188 39H217.18C219.222 47.1644 221.282 55.311 223.36 63.4398C225.437 71.5686 227.569 79.7152 229.753 87.8795L242.656 41.189H262.34L275.242 87.3323C277.356 79.3147 279.487 71.2571 281.64 63.1639C283.789 55.0752 285.885 47.022 287.927 39H308.047C304.327 52.4857 300.465 65.9937 296.456 79.515C292.443 93.0363 288.363 106.54 284.208 120.025H266.384L252.169 68.5253Z" fill="white"/>
<path d="M320.238 79.5149C324.941 65.9936 329.768 52.4857 334.725 39H359.111C364.067 52.4857 368.895 65.9937 373.598 79.5149C378.301 93.0362 382.91 106.54 387.43 120.025H365.669C363.992 114.415 362.319 108.764 360.641 103.078H332.647C330.969 108.764 329.296 114.415 327.619 120.025H306.405C310.925 106.54 315.535 93.0362 320.238 79.5149ZM337.461 87.221H355.827C352.837 77.5261 349.776 67.7956 346.644 58.025C343.507 67.8668 340.446 77.6018 337.461 87.221Z" fill="white"/>
<path d="M399.243 39H420.453V104.062H451.179V120.025H399.243V39Z" fill="white"/>
<path d="M460.692 39H481.902V104.062H512.628V120.025H460.692V39Z" fill="white"/>
<path d="M524.33 118.166C521.994 115.981 520.828 113.285 520.828 110.077C520.828 106.869 521.994 104.191 524.33 102.037C526.661 99.8881 529.575 98.8114 533.077 98.8114C536.574 98.8114 539.488 99.8881 541.824 102.037C544.156 104.191 545.321 106.869 545.321 110.077C545.321 113.285 544.156 115.981 541.824 118.166C539.488 120.355 536.574 121.445 533.077 121.445C529.575 121.445 526.661 120.355 524.33 118.166Z" fill="white"/>
<path d="M546 0H0V29H546V0Z" fill="white"/>
</g>
<defs>
<clipPath id="clip0_3_10271">
<rect width="546" height="160.445" fill="white"/>
</clipPath>
</defs>
</svg>
